PathFileType	4	(X/Y/Z)	E:\Qualisys_Data\Carbon_Farble_Plate\Data\Amateur_Runner\S1\T3\S1T3V11_c3d.trc
DataRate	CameraRate	NumFrames	NumMarkers	Units	OrigDataRate	OrigDataStartFrame	OrigNumFrames
200.000000	200.000000	5	39	mm	200.000000	233	311
Frame#	Time	LSHO			RSHO			LICST			RICST			LASIS			LHEEL			RASIS			LTROC			RTROC			SACR			LTH1			LSK4			LTH2			LTH3			RHM5			LSK2			LTH4			RTH1			LTOE			RTH2			RTH3			RTH4			LLEP			RLEP			LSK1			LSK3			RSK1			LHM5			RSK2			LFT1			RSK3			RSK4			LLME			RLME			RTOE			RHEEL			RFT1			RFT2			LFT2			
		X1	Y1	Z1	X2	Y2	Z2	X3	Y3	Z3	X4	Y4	Z4	X5	Y5	Z5	X6	Y6	Z6	X7	Y7	Z7	X8	Y8	Z8	X9	Y9	Z9	X10	Y10	Z10	X11	Y11	Z11	X12	Y12	Z12	X13	Y13	Z13	X14	Y14	Z14	X15	Y15	Z15	X16	Y16	Z16	X17	Y17	Z17	X18	Y18	Z18	X19	Y19	Z19	X20	Y20	Z20	X21	Y21	Z21	X22	Y22	Z22	X23	Y23	Z23	X24	Y24	Z24	X25	Y25	Z25	X26	Y26	Z26	X27	Y27	Z27	X28	Y28	Z28	X29	Y29	Z29	X30	Y30	Z30	X31	Y31	Z31	X32	Y32	Z32	X33	Y33	Z33	X34	Y34	Z34	X35	Y35	Z35	X36	Y36	Z36	X37	Y37	Z37	X38	Y38	Z38	X39	Y39	Z39	

234	1.165	1293.528442382812	1468.181640625	-553.3950805664062	1331.710815429688	1484.80029296875	-230.394775390625	1273.34033203125	1023.52587890625	-500.4461364746094	1280.883666992188	1031.130615234375	-201.6665344238281	1320.727172851562	987.73828125	-475.0162963867188	1355.717041015625	69.9531478881836	-403.2288513183594	1317.319580078125	981.6640625	-211.7560272216797	1219.668334960938	898.2257080078125	-520.725341796875	1203.022216796875	898.0601806640625	-178.5408630371094	1158.800170898438	1040.872192382812	-345.1991577148438	1385.862426757812	777.5149536132812	-502.2315979003906	1345.695678710938	215.1282958984375	-432.914794921875	1308.776611328125	747.5997314453125	-524.1334228515625	1415.485229492188	679.0392456054688	-484.1199035644531	825.1463012695312	209.6775512695312	-215.7907409667969	1345.263916015625	311.0513000488281	-473.8817749023438	1334.628662109375	653.1166381835938	-498.3683471679688	1318.599975585938	756.6317749023438	-202.9530487060547	1604.811279296875	84.86796569824219	-415.45751953125	1243.688842773438	759.3186645507812	-177.4315795898438	1313.102294921875	655.784912109375	-207.9418182373047	1233.873291015625	660.2948608398438	-191.1023406982422	1404.440307617188	520.5227661132812	-464.4585876464844	1236.059814453125	491.7622985839844	-220.6559295654297	1429.594848632812	309.1427917480469	-465.3473205566406	1422.853759765625	208.4754333496094	-458.0281677246094	1067.272216796875	412.4269409179688	-210.1150512695312	1535.546142578125	52.77513885498047	-469.7492980957031	1038.466674804688	487.2316284179688	-228.5894470214844	1367.075317382812	45.48165893554688	-370.4789428710938	976.1611938476562	372.7145690917969	-225.0606994628906	949.065185546875	445.2362060546875	-251.7542572021484	1401.795288085938	91.14735412597656	-451.9903259277344	845.769775390625	356.5110168457031	-231.3637084960938	856.0046997070312	160.2435455322266	-284.1273498535156	791.2723388671875	402.2962646484375	-278.2675170898438	769.096923828125	386.2450256347656	-310.6300354003906	766.3380737304688	393.8648071289062	-257.2511901855469	1362.266357421875	35.59907913208008	-421.2546081542969
235	1.17	1310.808837890625	1462.628173828125	-554.5576782226562	1346.969970703125	1480.20068359375	-230.6741790771484	1288.181396484375	1018.709350585938	-500.9166259765625	1296.54052734375	1026.496704101562	-201.7517547607422	1336.590209960938	983.2291259765624	-475.4309692382812	1358.844848632812	70.28876495361328	-404.466796875	1333.201171875	977.0137329101562	-212.1276550292969	1235.291381835938	892.8773193359375	-521.5136108398438	1219.301025390625	892.2415161132812	-179.50830078125	1173.860961914062	1035.630126953125	-345.2803039550781	1401.372192382812	771.9300537109375	-502.2959594726562	1354.869506835938	213.3697357177734	-433.0012817382812	1324.760498046875	742.5957641601562	-524.9274291992188	1430.779541015625	673.6878051757812	-484.7025451660156	846.791015625	211.8193206787109	-215.3287048339844	1356.58154296875	309.3471984863281	-473.6912841796875	1349.908081054688	647.8173217773438	-498.6844787597656	1337.080932617188	752.7225952148438	-202.4478302001953	1608.266967773438	77.89849090576172	-409.8970031738281	1262.087768554688	754.09033203125	-177.7068786621094	1333.25634765625	651.4888305664062	-206.6723785400391	1254.089233398438	654.8795776367188	-190.7774505615234	1420.666381835938	515.8107299804688	-465.1350402832031	1259.545166015625	486.9071044921875	-219.8555755615234	1441.011962890625	305.1807250976562	-465.8629455566406	1430.637084960938	204.5633087158203	-457.7471618652344	1090.690673828125	410.5799865722656	-209.3598937988281	1541.265991210938	56.49126052856445	-470.5368041992188	1063.374267578125	485.1824035644531	-229.2438812255859	1368.64208984375	45.22872924804688	-371.5316162109375	998.9066772460938	372.1134033203125	-224.8249664306641	973.2608032226562	444.8282165527344	-251.9854583740234	1407.09375	89.81918334960938	-451.6789245605469	868.4889526367188	358.417236328125	-231.208251953125	878.263916015625	161.7057647705078	-283.3971557617188	814.3673706054688	404.2847595214844	-279.1237487792969	792.44189453125	387.8037719726562	-311.3094177246094	789.390869140625	395.8105163574219	-258.4068298339844	1363.873046875	36.01457977294922	-422.0737915039062
236	1.175	1328.010375976562	1456.97021484375	-555.5977172851562	1361.850219726562	1475.358520507812	-230.8139495849609	1303.215942382812	1013.971313476562	-501.3426513671875	1311.776733398438	1021.187561035156	-201.9628753662109	1353.364135742188	979.0345458984376	-476.9166870117188	1360.94873046875	71.22562408447266	-403.1844177246094	1348.673461914062	972.6015625	-212.4441986083984	1250.312377929688	887.9046630859375	-522.8179931640625	1235.583129882812	886.5114135742188	-180.3972930908203	1188.52587890625	1030.968994140625	-345.6569213867188	1416.838623046875	766.9136962890625	-502.7075500488281	1363.943725585938	213.7604064941406	-433.6620178222656	1340.359741210938	738.076904296875	-526.6361694335938	1445.15771484375	668.1494750976562	-486.176513671875	869.928955078125	213.5201873779297	-214.8680725097656	1369.69775390625	309.704833984375	-473.6300964355469	1364.400146484375	643.3944091796875	-500.3672180175781	1355.535278320312	748.5830688476562	-201.3374176025391	1608.697021484375	80.66595458984375	-407.053466796875	1280.114990234375	748.5882568359375	-177.9828491210938	1354.052368164062	647.4474487304688	-204.9738006591797	1274.306396484375	649.1946411132812	-190.5203247070312	1438.42626953125	512.6166381835938	-465.5950622558594	1283.40185546875	482.3503723144531	-218.9859313964844	1453.704223632812	302.4288940429688	-466.2458801269531	1439.696166992188	202.5338439941406	-457.6597595214844	1114.473388671875	408.4244384765625	-208.9127655029297	1541.515869140625	56.188720703125	-468.3126525878906	1088.549438476562	483.4381713867188	-229.2752227783203	1369.984130859375	45.47279739379883	-370.5012817382812	1022.167785644531	371.6083374023438	-224.9824523925781	997.8643188476562	444.3865966796875	-252.2685699462891	1411.287719726562	89.27873992919922	-450.3349609375	891.9189453125	359.8456115722656	-231.7829437255859	901.1383056640624	163.0273132324219	-282.1226501464844	837.8627319335938	405.7836608886719	-280.0809936523438	815.7943115234375	389.23974609375	-312.1990966796875	812.3824462890625	397.3453674316406	-259.4298706054688	1365.419067382812	36.82133102416992	-421.5219116210938
237	1.18	1345.42138671875	1451.678100585938	-556.9682006835938	1376.960327148438	1470.904052734375	-230.8639068603516	1317.555053710938	1009.069274902344	-502.2109985351562	1326.933959960938	1016.233581542969	-201.8431396484375	1368.595947265625	975.1134643554688	-476.5295715332031	1362.001831054688	72.92230224609375	-400.8805236816406	1364.282470703125	967.4163818359376	-212.6843566894531	1265.166015625	883.3152465820312	-524.1986083984375	1251.7763671875	880.7221069335938	-181.4840240478516	1202.389892578125	1026.532470703125	-345.6632385253906	1432.097045898438	763.169921875	-503.6203308105469	1373.079711914062	216.4180297851562	-435.1146850585938	1354.633666992188	736.0540771484375	-528.9310913085938	1459.031616210938	663.5618286132812	-488.3682556152344	892.9691772460938	215.1376037597656	-214.0893402099609	1383.233642578125	311.8874816894531	-474.6444396972656	1377.306762695312	640.0502319335938	-503.0403747558594	1374.539672851562	744.4613037109375	-200.8189544677734	1611.473266601562	76.97505187988281	-408.58544921875	1298.510009765625	743.5586547851562	-178.1275634765625	1374.525146484375	643.4053955078125	-203.7420043945312	1294.655883789062	644.1492919921875	-189.8549194335938	1457.111206054688	511.4928283691406	-465.4071960449219	1307.817260742188	478.10791015625	-218.2913513183594	1465.892944335938	301.1085815429688	-465.8861999511719	1448.94091796875	202.0867767333984	-456.8857727050781	1138.816040039062	406.5894165039062	-208.2372741699219	1539.888549804688	54.21684265136719	-468.8295288085938	1113.611206054688	481.7750244140625	-229.5475921630859	1370.248657226562	46.12590026855469	-369.5628051757812	1046.256225585938	370.9366455078125	-224.8290557861328	1022.900268554688	443.6375732421875	-252.3461456298828	1412.442504882812	90.1204071044922	-447.94140625	915.265869140625	361.0717163085938	-231.7741241455078	924.7415771484376	164.0823669433594	-281.1740112304688	861.59814453125	406.8415832519531	-280.6830139160156	839.6348266601562	390.350341796875	-313.1954345703125	835.9918212890625	399.071533203125	-260.3377075195312	1365.46240234375	38.79956436157227	-420.365478515625
238	1.185	1362.599853515625	1446.477661132812	-558.3732299804688	1392.07470703125	1466.735961914062	-230.528564453125	1331.519165039062	1005.19873046875	-502.7705688476562	1341.651611328125	1011.272644042969	-201.836181640625	1376.847290039062	970.2091674804688	-476.7228393554688	1363.4599609375	75.43064880371094	-400.42041015625	1379.158935546875	962.557373046875	-212.9719085693359	1279.59912109375	881.2056274414062	-525.626708984375	1268.042236328125	874.8511352539062	-182.5958404541016	1216.742919921875	1021.864929199219	-346.1882019042969	1446.605834960938	761.5487670898438	-504.4101867675781	1381.974609375	220.0296478271484	-435.27783203125	1369.41357421875	734.7249145507812	-530.3267211914062	1473.875732421875	661.9257202148438	-491.1808776855469	917.0238037109376	216.4845275878906	-213.3994598388672	1397.255249023438	314.9758911132812	-476.5565795898438	1391.822387695312	639.0582275390625	-507.359619140625	1392.863525390625	740.7578125	-200.4171600341797	1612.520629882812	72.94365692138672	-408.5627746582031	1316.929931640625	737.8961791992188	-178.4999237060547	1395.638671875	639.5343017578125	-202.698486328125	1315.216186523438	638.4586181640625	-189.3884429931641	1475.995849609375	512.9035034179688	-465.3501281738281	1332.202026367188	473.7387390136719	-218.7035980224609	1479.803344726562	301.4621887207031	-462.5003051757812	1457.302612304688	202.8150939941406	-455.1340942382812	1163.625366210938	404.62548828125	-207.9506072998047	1541.300415039062	53.28147506713867	-468.3687438964844	1139.573364257812	479.9853515625	-229.54736328125	1371.2900390625	47.99435043334961	-369.2210083007812	1070.85595703125	370.0458984375	-224.5820617675781	1048.4404296875	443.3308410644531	-252.3246002197266	1411.940185546875	94.31454467773438	-447.851806640625	939.796142578125	362.0300903320312	-231.6943511962891	949.277099609375	164.6471405029297	-279.9671325683594	885.8829956054688	407.5083923339844	-281.8750305175781	864.3121948242188	390.569580078125	-313.8953552246094	860.4641723632812	399.4225158691406	-260.9246520996094	1365.74267578125	41.70899200439453	-419.4541625976562
